# xmcd
#
# Track frame offsets:
#	150
#	17100
#	33095
#	47643
#	66395
#	84397
#	104473
#	123687
#	140879
#	161753
#	177486
#
# Disc length: 2566 seconds
#
# Revision: 2
# Processed by: cddbd v1.5.2PL0 Copyright (c) Steve Scherf et al.
# Submitted via: EasyCDDAExtractor 9.1.3.1
#
DISCID=9d0a040b
DTITLE=Kellie Pickler - Small Town Girl
DYEAR=2006
DGENRE=Country
TTITLE0=Red High Heels
TTITLE1=Gotta Keep Moving
TTITLE2=Things That Never Cross A Man's Mind
TTITLE3=Didn't Know How Much I Loved You
TTITLE4=I Wonder
TTITLE5=Small Town Girl
TTITLE6=Wild Ponies
TTITLE7=Girls Like Me
TTITLE8=I'm On My Way
TTITLE9=One Of The Guys
TTITLE10=My Angel
EXTD=
EXTT0=
EXTT1=
EXTT2=
EXTT3=
EXTT4=
EXTT5=
EXTT6=
EXTT7=
EXTT8=
EXTT9=
EXTT10=
PLAYORDER=
